<?xml version="1.0" encoding="UTF-8"?>
<svg width="200px" height="200px" viewBox="0 0 200 200" version="1.1" xmlns="http://www.w3.org/2000/svg">
    <circle cx="100" cy="100" r="95" fill="#f8d7da" stroke="#ff758f" stroke-width="4"/>
    <g transform="translate(50, 40)">
        <!-- Black Hair -->
        <path d="M50,20 C20,20 20,60 20,70 C20,80 35,85 50,85 C65,85 80,80 80,70 C80,60 80,20 50,20" fill="#1a1a1a"/>
        <!-- Face -->
        <circle cx="50" cy="55" r="25" fill="#FFE5D9"/>
        <!-- Eyes -->
        <circle cx="40" cy="50" r="2" fill="#555"/>
        <circle cx="60" cy="50" r="2" fill="#555"/>
        <!-- Smile -->
        <path d="M40,60 Q50,70 60,60" fill="none" stroke="#555" stroke-width="2"/>
        <!-- Hair Details -->
        <path d="M25,40 C25,30 35,25 50,25" fill="none" stroke="#000" stroke-width="3"/>
        <path d="M75,40 C75,30 65,25 50,25" fill="none" stroke="#000" stroke-width="3"/>
        <!-- Fitness Band -->
        <path d="M20,35 C30,32 70,32 80,35" fill="none" stroke="#ff758f" stroke-width="3"/>
    </g>
    <!-- Body Shape -->
    <path d="M100,150 C85,150 80,160 80,170 C120,170 115,150 100,150" fill="#ff758f"/>
</svg>
