<svg xmlns="http://www.w3.org/2000/svg" width="200" height="200" version="1.1" viewBox="0 0 200 200"><circle cx="100" cy="100" r="95" fill="#f8d7da" stroke="#ff758f" stroke-width="4"/><g transform="translate(50, 40)"><path fill="#4A2F23" d="M50,20 C20,20 20,60 20,70 C20,80 35,85 50,85 C65,85 80,80 80,70 C80,60 80,20 50,20"/><circle cx="50" cy="55" r="25" fill="#FFE5D9"/><circle cx="40" cy="50" r="2" fill="#555"/><circle cx="60" cy="50" r="2" fill="#555"/><path fill="none" stroke="#555" stroke-width="2" d="M40,60 Q50,70 60,60"/><path fill="none" stroke="#3A1F13" stroke-width="3" d="M25,40 C25,30 35,25 50,25"/><path fill="none" stroke="#3A1F13" stroke-width="3" d="M75,40 C75,30 65,25 50,25"/><path fill="none" stroke="#ff758f" stroke-width="3" d="M20,35 C30,32 70,32 80,35"/></g><path fill="#ff758f" d="M100,150 C85,150 80,160 80,170 C120,170 115,150 100,150"/></svg>